<svg width="10" height="12" viewBox="0 0 10 12" fill="none" xmlns="http://www.w3.org/2000/svg">
<path fill-rule="evenodd" clip-rule="evenodd" d="M1.34375 5.25C1.34375 3.23071 2.98071 1.59375 5 1.59375C7.01929 1.59375 8.65625 3.23071 8.65625 5.25C8.65625 6.64826 8.07606 7.47135 7.39086 8.11118C7.10195 8.38096 6.81701 8.59851 6.51403 8.82983L6.51396 8.82988C6.42439 8.89827 6.33324 8.96785 6.23995 9.04035C6.05097 9.18721 5.84017 9.35693 5.65398 9.54085C5.47198 9.72061 5.2528 9.97188 5.10642 10.2988C5.08109 10.3554 5.05047 10.3862 5.03506 10.3975C5.02867 10.4022 5.02538 10.4033 5.02431 10.4037L5.02426 10.4037C5.02351 10.4039 5.01677 10.4062 5 10.4062C4.98323 10.4062 4.97649 10.4039 4.97574 10.4037L4.97569 10.4037C4.97462 10.4033 4.97133 10.4022 4.96494 10.3975C4.94953 10.3862 4.91891 10.3554 4.89358 10.2988C4.7472 9.97188 4.52802 9.72061 4.34602 9.54085C4.15983 9.35693 3.94903 9.18721 3.76005 9.04035C3.66676 8.96786 3.57561 8.89827 3.48605 8.82989L3.48598 8.82983C3.18299 8.59851 2.89805 8.38097 2.60914 8.11118C1.92394 7.47135 1.34375 6.64826 1.34375 5.25ZM9.875 5.25C9.875 7.79932 8.32537 8.98132 7.22818 9.81822C6.75177 10.1816 6.36066 10.4799 6.21875 10.7969C6.01586 11.25 5.59124 11.625 5 11.625C4.40876 11.625 3.98414 11.25 3.78125 10.7969C3.63934 10.4799 3.24823 10.1816 2.77182 9.81822C1.67463 8.98132 0.125 7.79932 0.125 5.25C0.125 2.55761 2.30761 0.375 5 0.375C7.69239 0.375 9.875 2.55761 9.875 5.25ZM6.125 5.25C6.125 5.87132 5.62132 6.375 5 6.375C4.37868 6.375 3.875 5.87132 3.875 5.25C3.875 4.62868 4.37868 4.125 5 4.125C5.62132 4.125 6.125 4.62868 6.125 5.25ZM7.25 5.25C7.25 6.49264 6.24264 7.5 5 7.5C3.75736 7.5 2.75 6.49264 2.75 5.25C2.75 4.00736 3.75736 3 5 3C6.24264 3 7.25 4.00736 7.25 5.25Z" fill="black" fill-opacity="0.5"/>
</svg>
