<?xml version="1.0" encoding="UTF-8"?>
<!DOCTYPE svg PUBLIC "-//W3C//DTD SVG 1.1//EN" "http://www.w3.org/Graphics/SVG/1.1/DTD/svg11.dtd">
<svg xmlns="http://www.w3.org/2000/svg" version="1.1" width="1600px" height="823px" style="shape-rendering:geometricPrecision; text-rendering:geometricPrecision; image-rendering:optimizeQuality; fill-rule:evenodd; clip-rule:evenodd" xmlns:xlink="http://www.w3.org/1999/xlink">
<g><path style="opacity:1" fill="#f6473a" d="M -0.5,-0.5 C 532.833,-0.5 1066.17,-0.5 1599.5,-0.5C 1599.5,273.833 1599.5,548.167 1599.5,822.5C 1066.17,822.5 532.833,822.5 -0.5,822.5C -0.5,548.167 -0.5,273.833 -0.5,-0.5 Z"/></g>
<g><path style="opacity:1" fill="#fec901" d="M 936.5,32.5 C 949.692,31.8626 957.358,38.0292 959.5,51C 958.361,62.8052 951.861,69.3052 940,70.5C 923.955,66.7435 918.622,57.0768 924,41.5C 927.284,37.0163 931.451,34.0163 936.5,32.5 Z"/></g>
<g><path style="opacity:1" fill="#f5f3f1" d="M 760.5,137.5 C 761.167,137.5 761.5,137.833 761.5,138.5C 760.711,138.783 760.044,139.283 759.5,140C 773.226,170.074 774.06,200.574 762,231.5C 759.548,236.907 756.714,242.074 753.5,247C 754.056,247.383 754.389,247.883 754.5,248.5C 753.833,248.5 753.5,248.833 753.5,249.5C 724.655,288.404 685.988,304.571 637.5,298C 607.246,291.136 583.412,274.969 566,249.5C 565.329,250.252 564.496,250.586 563.5,250.5C 563.5,250.167 563.5,249.833 563.5,249.5C 563.804,248.85 564.137,248.183 564.5,247.5C 553.707,229.329 548.04,209.662 547.5,188.5C 565.167,188.5 582.833,188.5 600.5,188.5C 601.053,200.049 604.387,210.716 610.5,220.5C 611.808,221.626 613.142,221.626 614.5,220.5C 615.167,220.5 615.5,220.833 615.5,221.5C 613.637,221.846 612.804,222.846 613,224.5C 635.886,248.675 662.052,252.842 691.5,237C 697.192,232.986 701.692,228.152 705,222.5C 703.385,221.614 701.885,220.614 700.5,219.5C 700.5,218.833 700.833,218.5 701.5,218.5C 703.258,218.877 704.925,219.544 706.5,220.5C 710.619,215.932 713.453,210.598 715,204.5C 718.723,191.631 718.223,178.964 713.5,166.5C 713.167,165.833 712.833,165.167 712.5,164.5C 701.467,142.304 683.467,130.637 658.5,129.5C 658.5,111.833 658.5,94.1667 658.5,76.5C 702.981,77.9811 736.148,97.9811 758,136.5C 758.671,137.252 759.504,137.586 760.5,137.5 Z"/></g>
<g><path style="opacity:1" fill="#5dad95" d="M 939.5,76.5 C 958.082,93.5795 976.248,111.246 994,129.5C 994.163,131.387 993.329,132.887 991.5,134C 966.709,153.683 939.376,158.016 909.5,147C 901.196,143.034 893.696,137.867 887,131.5C 886.333,130.833 886.333,130.167 887,129.5C 904.702,111.965 922.202,94.2986 939.5,76.5 Z"/></g>
<g><path style="opacity:1" fill="#f5f3f1" d="M 593.5,180.5 C 580.124,181.148 567.124,180.481 554.5,178.5C 561.473,131.689 587.473,100.856 632.5,86C 638.718,84.186 645.051,83.0193 651.5,82.5C 651.833,95.85 651.499,109.183 650.5,122.5C 619.331,130.002 600.331,149.335 593.5,180.5 Z"/></g>
<g><path style="opacity:1" fill="#f5f3f1" d="M 1140.5,308.5 C 1140.5,308.833 1140.5,309.167 1140.5,309.5C 1139.32,309.281 1138.32,309.614 1137.5,310.5C 1133.05,318.556 1128.72,326.723 1124.5,335C 1108.16,335.833 1091.82,335.666 1075.5,334.5C 1083.89,318.394 1091.56,302.394 1098.5,286.5C 1098.5,285.833 1098.83,285.5 1099.5,285.5C 1103.98,278.549 1107.98,271.216 1111.5,263.5C 1094.17,260.582 1079,253.249 1066,241.5C 1065.33,240.5 1065.33,239.5 1066,238.5C 1076.32,229.016 1086.48,219.349 1096.5,209.5C 1111.91,220.968 1126.41,219.968 1140,206.5C 1150.88,187.396 1146.72,172.563 1127.5,162C 1115.86,158.345 1105.52,160.512 1096.5,168.5C 1095.5,168 1094.5,167.5 1093.5,167C 1083.96,157.292 1074.29,147.792 1064.5,138.5C 1083.19,119.218 1105.85,112.051 1132.5,117C 1163.89,125.052 1183.05,144.885 1190,176.5C 1191.6,189.513 1190.27,202.179 1186,214.5C 1170.76,245.322 1155.26,275.989 1139.5,306.5C 1139.86,307.183 1140.2,307.85 1140.5,308.5 Z"/></g>
<g><path style="opacity:1" fill="#f7473a" d="M 915.5,182.5 C 896.167,202.167 876.833,221.833 857.5,241.5C 838.264,252.035 819.097,262.702 800,273.5C 784.875,265.022 769.709,256.689 754.5,248.5C 754.389,247.883 754.056,247.383 753.5,247C 756.714,242.074 759.548,236.907 762,231.5C 774.06,200.574 773.226,170.074 759.5,140C 760.044,139.283 760.711,138.783 761.5,138.5C 774.445,131.394 787.278,124.061 800,116.5C 838.481,138.654 876.981,160.654 915.5,182.5 Z"/></g>
<g><path style="opacity:1" fill="#f6ddd9" d="M 918.5,180.5 C 917.71,181.401 916.71,182.068 915.5,182.5C 876.981,160.654 838.481,138.654 800,116.5C 787.278,124.061 774.445,131.394 761.5,138.5C 761.5,137.833 761.167,137.5 760.5,137.5C 773.374,129.475 786.541,121.808 800,114.5C 836.565,135.2 873.065,156.033 909.5,177C 912.309,178.741 915.309,179.908 918.5,180.5 Z"/></g>
<g><path style="opacity:1" fill="#f5f2f0" d="M 1062.5,149.5 C 1070.87,155.361 1078.54,162.194 1085.5,170C 1077.39,182.673 1077.73,195.173 1086.5,207.5C 1079.8,215.029 1072.64,222.029 1065,228.5C 1052.46,213.86 1047.46,196.86 1050,177.5C 1052.29,167.263 1056.45,157.929 1062.5,149.5 Z"/></g>
<g><path style="opacity:1" fill="#5dae96" d="M 1023.5,241.5 C 1023.5,242.167 1023.5,242.833 1023.5,243.5C 985.695,276.36 943.028,284.527 895.5,268C 881.307,262.078 868.641,253.912 857.5,243.5C 857.5,242.833 857.5,242.167 857.5,241.5C 876.833,221.833 896.167,202.167 915.5,182.5C 916.71,182.068 917.71,181.401 918.5,180.5C 925.297,173.202 932.297,166.035 939.5,159C 940.167,158.333 940.833,158.333 941.5,159C 969.035,186.368 996.368,213.868 1023.5,241.5 Z"/></g>
<g><path style="opacity:1" fill="#f7493b" d="M 713.5,166.5 C 718.223,178.964 718.723,191.631 715,204.5C 713.453,210.598 710.619,215.932 706.5,220.5C 704.925,219.544 703.258,218.877 701.5,218.5C 688.564,210.692 675.564,202.859 662.5,195C 679.231,184.969 696.231,175.469 713.5,166.5 Z"/></g>
<g><path style="opacity:1" fill="#f67167" d="M 554.5,178.5 C 567.124,180.481 580.124,181.148 593.5,180.5C 580.344,181.496 567.01,181.829 553.5,181.5C 553.263,180.209 553.596,179.209 554.5,178.5 Z"/></g>
<g><path style="opacity:1" fill="#f6ddd9" d="M 712.5,164.5 C 712.833,165.167 713.167,165.833 713.5,166.5C 696.231,175.469 679.231,184.969 662.5,195C 675.564,202.859 688.564,210.692 701.5,218.5C 700.833,218.5 700.5,218.833 700.5,219.5C 687.022,211.592 673.356,203.925 659.5,196.5C 644.806,204.845 630.139,213.179 615.5,221.5C 615.5,220.833 615.167,220.5 614.5,220.5C 646.806,201.343 679.472,182.676 712.5,164.5 Z"/></g>
<g><path style="opacity:1" fill="#f7483b" d="M 700.5,219.5 C 701.885,220.614 703.385,221.614 705,222.5C 701.692,228.152 697.192,232.986 691.5,237C 662.052,252.842 635.886,248.675 613,224.5C 612.804,222.846 613.637,221.846 615.5,221.5C 630.139,213.179 644.806,204.845 659.5,196.5C 673.356,203.925 687.022,211.592 700.5,219.5 Z"/></g>
<g><path style="opacity:1" fill="#f6483a" d="M 857.5,243.5 C 868.641,253.912 881.307,262.078 895.5,268C 943.028,284.527 985.695,276.36 1023.5,243.5C 1041.64,253.736 1059.64,264.236 1077.5,275C 1046.97,292.765 1016.3,310.265 985.5,327.5C 970.521,312.855 955.521,298.188 940.5,283.5C 925.452,298.215 910.452,312.882 895.5,327.5C 864.23,310.53 833.23,293.03 802.5,275C 820.535,263.982 838.868,253.482 857.5,243.5 Z"/></g>
<g><path style="opacity:1" fill="#f6dcd8" d="M 1023.5,241.5 C 1048.87,256.182 1074.2,270.848 1099.5,285.5C 1098.83,285.5 1098.5,285.833 1098.5,286.5C 1093.03,283.597 1087.7,280.43 1082.5,277C 1081.17,276.333 1079.83,276.333 1078.5,277C 1047.78,294.022 1017.44,311.522 987.5,329.5C 986.5,329.167 985.833,328.5 985.5,327.5C 1016.3,310.265 1046.97,292.765 1077.5,275C 1059.64,264.236 1041.64,253.736 1023.5,243.5C 1023.5,242.833 1023.5,242.167 1023.5,241.5 Z"/></g>
<g><path style="opacity:1" fill="#f6dfdb" d="M 857.5,241.5 C 857.5,242.167 857.5,242.833 857.5,243.5C 838.868,253.482 820.535,263.982 802.5,275C 833.23,293.03 864.23,310.53 895.5,327.5C 894.833,328.833 893.833,329.833 892.5,330.5C 892.586,329.504 892.252,328.671 891.5,328C 861.065,310.7 830.565,293.533 800,276.5C 754.52,301.907 709.187,327.573 664,353.5C 663.911,355.113 664.745,356.28 666.5,357C 710.5,382 754.5,407 798.5,432C 799.833,432.667 801.167,432.667 802.5,432C 808.363,428.236 814.363,424.736 820.5,421.5C 821.167,421.5 821.5,421.833 821.5,422.5C 815.563,426.81 809.23,430.643 802.5,434C 848.337,460.42 894.337,486.586 940.5,512.5C 986.493,486.839 1032.16,460.672 1077.5,434C 1070.94,430.22 1064.27,426.72 1057.5,423.5C 1058.17,422.167 1059.17,421.167 1060.5,420.5C 1060.41,421.496 1060.75,422.329 1061.5,423C 1067.09,425.599 1072.42,428.599 1077.5,432C 1079.17,432.667 1080.83,432.667 1082.5,432C 1127.5,406.167 1172.5,380.333 1217.5,354.5C 1191.61,339.726 1165.94,324.726 1140.5,309.5C 1140.5,309.167 1140.5,308.833 1140.5,308.5C 1214.14,350.321 1287.81,392.155 1361.5,434C 1221.64,514.098 1081.64,593.932 941.5,673.5C 940.833,672.833 940.167,672.167 939.5,671.5C 985.888,646.47 1031.89,620.637 1077.5,594C 1031.91,567.417 986.081,541.25 940,515.5C 900.876,537.644 861.709,559.644 822.5,581.5C 822.5,581.167 822.5,580.833 822.5,580.5C 860.771,558.36 899.104,536.193 937.5,514C 891.663,487.58 845.663,461.414 799.5,435.5C 755.103,461.363 710.437,486.697 665.5,511.5C 665.5,510.833 665.167,510.5 664.5,510.5C 707.779,485.188 751.446,460.354 795.5,436C 796.451,435.282 796.617,434.449 796,433.5C 750.706,407.437 705.206,381.77 659.5,356.5C 636.584,368.756 613.918,381.422 591.5,394.5C 591.5,393.833 591.167,393.5 590.5,393.5C 612.771,380.694 635.104,367.86 657.5,355C 611.914,328.417 566.081,302.25 520,276.5C 474.408,302.045 428.908,327.712 383.5,353.5C 383.5,352.833 383.167,352.5 382.5,352.5C 442.571,317.775 502.905,283.441 563.5,249.5C 563.5,249.833 563.5,250.167 563.5,250.5C 551.557,258.145 539.224,265.312 526.5,272C 524.745,272.72 523.911,273.887 524,275.5C 569.232,301.446 614.565,327.113 660,352.5C 706.177,327.327 752.011,301.493 797.5,275C 782.923,266.237 768.257,257.737 753.5,249.5C 753.5,248.833 753.833,248.5 754.5,248.5C 769.709,256.689 784.875,265.022 800,273.5C 819.097,262.702 838.264,252.035 857.5,241.5 Z"/></g>
<g><path style="opacity:1" fill="#f7483b" d="M 753.5,249.5 C 768.257,257.737 782.923,266.237 797.5,275C 752.011,301.493 706.177,327.327 660,352.5C 614.565,327.113 569.232,301.446 524,275.5C 523.911,273.887 524.745,272.72 526.5,272C 539.224,265.312 551.557,258.145 563.5,250.5C 564.496,250.586 565.329,250.252 566,249.5C 583.412,274.969 607.246,291.136 637.5,298C 685.988,304.571 724.655,288.404 753.5,249.5 Z"/></g>
<g><path style="opacity:1" fill="#f7483b" d="M 590.5,393.5 C 589.577,394.303 588.577,394.47 587.5,394C 598.244,357.15 587.577,328.15 555.5,307C 518.627,289.503 486.793,296.003 460,326.5C 450.275,339.508 445.442,354.175 445.5,370.5C 460.5,370.5 475.5,370.5 490.5,370.5C 492.163,353.503 501.497,344.17 518.5,342.5C 538.249,344.67 547.749,355.67 547,375.5C 545.861,379.112 544.194,382.446 542,385.5C 528.955,398.214 515.622,410.547 502,422.5C 461.919,400.083 422.086,377.249 382.5,354C 382.728,353.601 383.062,353.435 383.5,353.5C 428.908,327.712 474.408,302.045 520,276.5C 566.081,302.25 611.914,328.417 657.5,355C 635.104,367.86 612.771,380.694 590.5,393.5 Z"/></g>
<g><path style="opacity:1" fill="#f7473a" d="M 892.5,330.5 C 865.535,356.965 838.701,383.632 812,410.5C 811.333,411.5 811.333,412.5 812,413.5C 815.333,415.667 818.166,418.334 820.5,421.5C 814.363,424.736 808.363,428.236 802.5,432C 801.167,432.667 799.833,432.667 798.5,432C 754.5,407 710.5,382 666.5,357C 664.745,356.28 663.911,355.113 664,353.5C 709.187,327.573 754.52,301.907 800,276.5C 830.565,293.533 861.065,310.7 891.5,328C 892.252,328.671 892.586,329.504 892.5,330.5 Z"/></g>
<g><path style="opacity:1" fill="#f6473a" d="M 1098.5,286.5 C 1091.56,302.394 1083.89,318.394 1075.5,334.5C 1091.82,335.666 1108.16,335.833 1124.5,335C 1128.72,326.723 1133.05,318.556 1137.5,310.5C 1138.32,309.614 1139.32,309.281 1140.5,309.5C 1165.94,324.726 1191.61,339.726 1217.5,354.5C 1172.5,380.333 1127.5,406.167 1082.5,432C 1080.83,432.667 1079.17,432.667 1077.5,432C 1072.42,428.599 1067.09,425.599 1061.5,423C 1060.75,422.329 1060.41,421.496 1060.5,420.5C 1063.63,417.871 1066.63,415.038 1069.5,412C 1041.97,384.632 1014.63,357.132 987.5,329.5C 1017.44,311.522 1047.78,294.022 1078.5,277C 1079.83,276.333 1081.17,276.333 1082.5,277C 1087.7,280.43 1093.03,283.597 1098.5,286.5 Z"/></g>
<g><path style="opacity:1" fill="#5cae96" d="M 985.5,327.5 C 985.833,328.5 986.5,329.167 987.5,329.5C 1014.63,357.132 1041.97,384.632 1069.5,412C 1066.63,415.038 1063.63,417.871 1060.5,420.5C 1059.17,421.167 1058.17,422.167 1057.5,423.5C 1002.66,465.297 942.329,475.463 876.5,454C 856.535,446.168 838.201,435.668 821.5,422.5C 821.5,421.833 821.167,421.5 820.5,421.5C 818.166,418.334 815.333,415.667 812,413.5C 811.333,412.5 811.333,411.5 812,410.5C 838.701,383.632 865.535,356.965 892.5,330.5C 893.833,329.833 894.833,328.833 895.5,327.5C 910.452,312.882 925.452,298.215 940.5,283.5C 955.521,298.188 970.521,312.855 985.5,327.5 Z"/></g>
<g><path style="opacity:1" fill="#f5f3f1" d="M 590.5,393.5 C 591.167,393.5 591.5,393.833 591.5,394.5C 589.265,395.228 587.432,396.561 586,398.5C 583.423,404.66 580.09,410.327 576,415.5C 565.804,426.03 555.304,436.197 544.5,446C 582.78,468.766 621.447,490.933 660.5,512.5C 661.86,511.82 663.193,511.153 664.5,510.5C 665.167,510.5 665.5,510.833 665.5,511.5C 664.571,512.315 663.571,513.148 662.5,514C 700.252,535.627 738.085,557.127 776,578.5C 776.5,545.502 776.667,512.502 776.5,479.5C 791.5,479.5 806.5,479.5 821.5,479.5C 821.168,513.337 821.502,547.004 822.5,580.5C 822.5,580.833 822.5,581.167 822.5,581.5C 821.182,589.334 821.182,597.167 822.5,605C 861.527,627.179 900.527,649.345 939.5,671.5C 940.167,672.167 940.833,672.833 941.5,673.5C 940.167,674.167 938.833,674.833 937.5,675.5C 937.737,674.209 937.404,673.209 936.5,672.5C 898.442,650.719 860.275,629.052 822,607.5C 821.5,636.831 821.333,666.165 821.5,695.5C 806.5,695.5 791.5,695.5 776.5,695.5C 777.159,666.147 776.492,637.147 774.5,608.5C 774.5,608.167 774.5,607.833 774.5,607.5C 775.771,603.252 776.437,598.752 776.5,594C 776.486,589.585 776.152,585.252 775.5,581C 736.726,558.617 697.726,536.783 658.5,515.5C 657.833,515.5 657.167,515.5 656.5,515.5C 656.611,514.883 656.944,514.383 657.5,514C 636.67,502.42 616.004,490.586 595.5,478.5C 594.501,491.483 594.168,504.483 594.5,517.5C 545.167,517.5 495.833,517.5 446.5,517.5C 446.833,504.15 446.499,490.817 445.5,477.5C 444.817,477.863 444.15,478.196 443.5,478.5C 442.833,478.5 442.167,478.5 441.5,478.5C 460.971,460.532 480.638,442.699 500.5,425C 462.33,402.747 423.996,380.747 385.5,359C 383.091,357.293 380.425,356.46 377.5,356.5C 376.833,356.5 376.167,356.5 375.5,356.5C 377.663,354.917 379.996,353.584 382.5,352.5C 383.167,352.5 383.5,352.833 383.5,353.5C 383.062,353.435 382.728,353.601 382.5,354C 422.086,377.249 461.919,400.083 502,422.5C 515.622,410.547 528.955,398.214 542,385.5C 544.194,382.446 545.861,379.112 547,375.5C 547.749,355.67 538.249,344.67 518.5,342.5C 501.497,344.17 492.163,353.503 490.5,370.5C 475.5,370.5 460.5,370.5 445.5,370.5C 445.442,354.175 450.275,339.508 460,326.5C 486.793,296.003 518.627,289.503 555.5,307C 587.577,328.15 598.244,357.15 587.5,394C 588.577,394.47 589.577,394.303 590.5,393.5 Z"/></g>
<g><path style="opacity:1" fill="#f7473a" d="M 377.5,356.5 C 380.425,356.46 383.091,357.293 385.5,359C 423.996,380.747 462.33,402.747 500.5,425C 480.638,442.699 460.971,460.532 441.5,478.5C 420.851,489.826 400.184,501.159 379.5,512.5C 333.383,487.275 287.716,461.275 242.5,434.5C 287.517,408.472 332.517,382.472 377.5,356.5 Z"/></g>
<g><path style="opacity:1" fill="#f7473a" d="M 664.5,510.5 C 663.193,511.153 661.86,511.82 660.5,512.5C 621.447,490.933 582.78,468.766 544.5,446C 555.304,436.197 565.804,426.03 576,415.5C 580.09,410.327 583.423,404.66 586,398.5C 587.432,396.561 589.265,395.228 591.5,394.5C 613.918,381.422 636.584,368.756 659.5,356.5C 705.206,381.77 750.706,407.437 796,433.5C 796.617,434.449 796.451,435.282 795.5,436C 751.446,460.354 707.779,485.188 664.5,510.5 Z"/></g>
<g><path style="opacity:1" fill="#f7483a" d="M 1219.5,355.5 C 1265.64,381.402 1311.64,407.568 1357.5,434C 1312.49,460.506 1267.16,486.506 1221.5,512C 1219.71,512.52 1218.04,512.187 1216.5,511C 1171.83,485.333 1127.17,459.667 1082.5,434C 1128.56,408.312 1174.22,382.145 1219.5,355.5 Z"/></g>
<g><path style="opacity:1" fill="#f6483b" d="M 821.5,422.5 C 838.201,435.668 856.535,446.168 876.5,454C 942.329,475.463 1002.66,465.297 1057.5,423.5C 1064.27,426.72 1070.94,430.22 1077.5,434C 1032.16,460.672 986.493,486.839 940.5,512.5C 894.337,486.586 848.337,460.42 802.5,434C 809.23,430.643 815.563,426.81 821.5,422.5 Z"/></g>
<g><path style="opacity:1" fill="#fc9a16" d="M 1267.5,425.5 C 1268.47,427.607 1268.8,429.941 1268.5,432.5C 1263.5,432.5 1258.5,432.5 1253.5,432.5C 1257.97,431.514 1262.64,431.181 1267.5,431.5C 1267.5,429.5 1267.5,427.5 1267.5,425.5 Z"/></g>
<g><path style="opacity:1" fill="#fec901" d="M 1267.5,425.5 C 1267.5,427.5 1267.5,429.5 1267.5,431.5C 1262.64,431.181 1257.97,431.514 1253.5,432.5C 1242.81,432.168 1232.15,432.501 1221.5,433.5C 1234.12,442.815 1247.12,451.649 1260.5,460C 1255.19,467.648 1248.35,473.482 1240,477.5C 1233.44,463.296 1226.61,449.296 1219.5,435.5C 1212.43,449.312 1205.59,463.312 1199,477.5C 1190.65,473.482 1183.81,467.648 1178.5,460C 1191.54,451.154 1204.54,442.32 1217.5,433.5C 1201.85,432.501 1186.18,432.167 1170.5,432.5C 1170.26,422.765 1173.1,414.098 1179,406.5C 1191.9,414.703 1204.74,423.036 1217.5,431.5C 1217.83,430.833 1218.17,430.167 1218.5,429.5C 1214.37,414.844 1210.37,400.177 1206.5,385.5C 1213.14,384.557 1219.81,384.391 1226.5,385C 1229.12,385.151 1231.45,385.985 1233.5,387.5C 1229.33,400.828 1225.17,414.161 1221,427.5C 1220.22,428.944 1220.39,430.277 1221.5,431.5C 1234.17,423.167 1246.83,414.833 1259.5,406.5C 1264.49,411.778 1267.15,418.111 1267.5,425.5 Z"/></g>
<g><path style="opacity:1" fill="#f7473a" d="M 822.5,580.5 C 821.502,547.004 821.168,513.337 821.5,479.5C 806.5,479.5 791.5,479.5 776.5,479.5C 776.667,512.502 776.5,545.502 776,578.5C 738.085,557.127 700.252,535.627 662.5,514C 663.571,513.148 664.571,512.315 665.5,511.5C 710.437,486.697 755.103,461.363 799.5,435.5C 845.663,461.414 891.663,487.58 937.5,514C 899.104,536.193 860.771,558.36 822.5,580.5 Z"/></g>
<g><path style="opacity:1" fill="#f7473a" d="M 1078.5,435.5 C 1125.06,461.117 1171.39,487.284 1217.5,514C 1171.64,540.586 1125.64,566.586 1079.5,592C 1034,565.747 988.329,539.747 942.5,514C 988.06,488.059 1033.39,461.892 1078.5,435.5 Z"/></g>
<g><path style="opacity:1" fill="#f74a3d" d="M 540.5,448.5 C 556.389,456.447 572.056,464.947 587.5,474C 563.167,474.667 538.833,474.667 514.5,474C 523.672,465.995 532.338,457.495 540.5,448.5 Z"/></g>
<g><path style="opacity:1" fill="#f7473a" d="M 656.5,515.5 C 610.726,540.889 565.059,566.556 519.5,592.5C 473.337,566.586 427.337,540.42 381.5,514C 402.392,502.392 423.059,490.559 443.5,478.5C 444.15,478.196 444.817,477.863 445.5,477.5C 446.499,490.817 446.833,504.15 446.5,517.5C 495.833,517.5 545.167,517.5 594.5,517.5C 594.168,504.483 594.501,491.483 595.5,478.5C 616.004,490.586 636.67,502.42 657.5,514C 656.944,514.383 656.611,514.883 656.5,515.5 Z"/></g>
<g><path style="opacity:1" fill="#e1d5d0" d="M 1323.5,488.5 C 1331.81,488.329 1339.48,490.496 1346.5,495C 1351.45,498.554 1352.62,503.054 1350,508.5C 1345.24,512.424 1340.07,515.758 1334.5,518.5C 1323.5,512.333 1312.5,506.167 1301.5,500C 1308.53,495.322 1315.86,491.489 1323.5,488.5 Z"/></g>
<g><path style="opacity:1" fill="#e1d6d2" d="M 258.5,490.5 C 266.432,494.134 274.099,498.3 281.5,503C 284.167,502.667 286.833,502.333 289.5,502C 289.957,502.414 290.291,502.914 290.5,503.5C 289.5,504.333 288.5,505.167 287.5,506C 289.833,507.667 292.167,509.333 294.5,511C 293.601,512.236 292.434,513.07 291,513.5C 288.016,511.84 285.016,510.174 282,508.5C 276.883,512.334 271.383,515.168 265.5,517C 264.667,516.167 263.833,515.333 263,514.5C 259.962,507.591 256.795,500.758 253.5,494C 255.233,492.811 256.9,491.644 258.5,490.5 Z"/></g>
<g><path style="opacity:1" fill="#f64a3d" d="M 1324.5,492.5 C 1332.69,492.504 1339.52,495.504 1345,501.5C 1345.67,503.167 1345.67,504.833 1345,506.5C 1342.06,509.716 1338.56,512.049 1334.5,513.5C 1326.21,509.354 1318.21,504.687 1310.5,499.5C 1314.78,496.175 1319.45,493.842 1324.5,492.5 Z"/></g>
<g><path style="opacity:1" fill="#f64e40" d="M 260.5,496.5 C 266.276,499.558 271.943,502.891 277.5,506.5C 274.467,508.698 271.3,510.698 268,512.5C 265.212,507.305 262.712,501.971 260.5,496.5 Z"/></g>
<g><path style="opacity:1" fill="#f7473a" d="M 658.5,515.5 C 697.726,536.783 736.726,558.617 775.5,581C 776.152,585.252 776.486,589.585 776.5,594C 776.437,598.752 775.771,603.252 774.5,607.5C 736.059,628.89 697.726,650.556 659.5,672.5C 613.833,646.333 568.167,620.167 522.5,594C 567.733,567.554 613.066,541.387 658.5,515.5 Z"/></g>
<g><path style="opacity:1" fill="#f7473a" d="M 939.5,671.5 C 900.527,649.345 861.527,627.179 822.5,605C 821.182,597.167 821.182,589.334 822.5,581.5C 861.709,559.644 900.876,537.644 940,515.5C 986.081,541.25 1031.91,567.417 1077.5,594C 1031.89,620.637 985.888,646.47 939.5,671.5 Z"/></g>
<g><path style="opacity:1" fill="#f6ddd9" d="M 375.5,356.5 C 376.167,356.5 376.833,356.5 377.5,356.5C 332.517,382.472 287.517,408.472 242.5,434.5C 287.716,461.275 333.383,487.275 379.5,512.5C 400.184,501.159 420.851,489.826 441.5,478.5C 442.167,478.5 442.833,478.5 443.5,478.5C 423.059,490.559 402.392,502.392 381.5,514C 427.337,540.42 473.337,566.586 519.5,592.5C 565.059,566.556 610.726,540.889 656.5,515.5C 657.167,515.5 657.833,515.5 658.5,515.5C 613.066,541.387 567.733,567.554 522.5,594C 568.167,620.167 613.833,646.333 659.5,672.5C 697.726,650.556 736.059,628.89 774.5,607.5C 774.5,607.833 774.5,608.167 774.5,608.5C 737.23,630.14 699.896,651.807 662.5,673.5C 707.174,699.839 752.174,725.672 797.5,751C 798.833,751.667 800.167,751.667 801.5,751C 846.167,725.667 890.833,700.333 935.5,675C 936.252,674.329 936.586,673.496 936.5,672.5C 937.404,673.209 937.737,674.209 937.5,675.5C 892.392,701.559 847.059,727.392 801.5,753C 798.581,753.552 795.914,752.885 793.5,751C 608.5,645.5 423.5,540 238.5,434.5C 283.734,407.717 329.4,381.717 375.5,356.5 Z"/></g>
<g><path style="opacity:1" fill="#e1d6d1" d="M 393.5,574.5 C 399.563,573.838 405.23,575.004 410.5,578C 411.113,580.147 411.779,582.314 412.5,584.5C 419.196,582.281 425.03,583.614 430,588.5C 430.667,590.5 430.667,592.5 430,594.5C 424.104,601.087 416.937,603.587 408.5,602C 408.167,601.667 407.833,601.333 407.5,601C 413.732,600.037 419.232,597.537 424,593.5C 424.667,592.5 424.667,591.5 424,590.5C 421.615,588.224 418.781,586.891 415.5,586.5C 410.613,587.802 405.946,589.302 401.5,591C 400.692,590.692 400.025,590.192 399.5,589.5C 409.231,584.218 408.731,580.551 398,578.5C 392.023,578.976 387.856,581.976 385.5,587.5C 381.567,586.646 380.734,584.646 383,581.5C 386.308,578.771 389.808,576.438 393.5,574.5 Z"/></g>
<g><path style="opacity:1" fill="#e1d7d3" d="M 1183.5,576.5 C 1186.65,576.211 1189.65,576.711 1192.5,578C 1186.09,579.124 1180.59,581.957 1176,586.5C 1175.55,591.427 1177.72,594.927 1182.5,597C 1194.99,603.26 1205.66,601.093 1214.5,590.5C 1216.72,591.081 1217.56,592.414 1217,594.5C 1208.04,602.7 1197.54,605.533 1185.5,603C 1179.96,601.315 1175.13,598.482 1171,594.5C 1168.55,589.676 1169.39,585.509 1173.5,582C 1176.77,579.871 1180.1,578.038 1183.5,576.5 Z"/></g>
<g><path style="opacity:1" fill="#f7473a" d="M 936.5,672.5 C 936.586,673.496 936.252,674.329 935.5,675C 890.833,700.333 846.167,725.667 801.5,751C 800.167,751.667 798.833,751.667 797.5,751C 752.174,725.672 707.174,699.839 662.5,673.5C 699.896,651.807 737.23,630.14 774.5,608.5C 776.492,637.147 777.159,666.147 776.5,695.5C 791.5,695.5 806.5,695.5 821.5,695.5C 821.333,666.165 821.5,636.831 822,607.5C 860.275,629.052 898.442,650.719 936.5,672.5 Z"/></g>
<g><path style="opacity:1" fill="#e1d7d2" d="M 525.5,653.5 C 544.256,651.087 551.756,659.087 548,677.5C 552.751,674.541 557.584,671.707 562.5,669C 564.641,668.116 566.307,668.616 567.5,670.5C 560.167,674.833 552.833,679.167 545.5,683.5C 544.252,682.96 543.085,682.293 542,681.5C 542.132,675.507 542.132,669.507 542,663.5C 541.215,661.714 540.049,660.214 538.5,659C 529.172,654.996 522.505,657.496 518.5,666.5C 513.746,664.722 513.246,662.055 517,658.5C 519.682,656.415 522.516,654.748 525.5,653.5 Z"/></g>
<g><path style="opacity:1" fill="#e1d6d1" d="M 1043.5,657.5 C 1048.29,656.97 1052.62,658.137 1056.5,661C 1057.83,663 1057.83,665 1056.5,667C 1059.12,667.04 1061.79,666.873 1064.5,666.5C 1071.22,666.058 1074.39,669.058 1074,675.5C 1069,680.169 1063.33,683.836 1057,686.5C 1046.18,680.35 1035.34,674.183 1024.5,668C 1030.61,663.95 1036.94,660.45 1043.5,657.5 Z"/></g>
<g><path style="opacity:1" fill="#f64d3f" d="M 1042.5,661.5 C 1044.86,661.337 1047.19,661.503 1049.5,662C 1053.04,663.826 1053.37,666.16 1050.5,669C 1047.71,670.3 1045.04,671.8 1042.5,673.5C 1039.29,671.735 1036.29,669.735 1033.5,667.5C 1036.74,665.725 1039.74,663.725 1042.5,661.5 Z"/></g>
<g><path style="opacity:1" fill="#f64c3e" d="M 1057.5,669.5 C 1071.36,670.746 1072.03,674.579 1059.5,681C 1054.81,680.837 1050.81,679.004 1047.5,675.5C 1050.93,673.461 1054.26,671.461 1057.5,669.5 Z"/></g>
<g><path style="opacity:1" fill="#e1d6d1" d="M 659.5,734.5 C 672.058,740.782 684.391,747.616 696.5,755C 694.835,756.84 692.835,757.507 690.5,757C 681,751.5 671.5,746 662,740.5C 661.513,743.798 660.347,746.798 658.5,749.5C 656.998,748.917 655.665,748.084 654.5,747C 654.89,742.228 656.556,738.062 659.5,734.5 Z"/></g>
<g><path style="opacity:1" fill="#e1d6d1" d="M 903.5,741.5 C 918.258,745.189 932.925,749.189 947.5,753.5C 946.148,754.896 944.481,755.563 942.5,755.5C 938.918,754.806 935.418,753.806 932,752.5C 926.936,754.948 922.103,757.782 917.5,761C 918.975,763.309 920.642,765.476 922.5,767.5C 921.833,768.833 920.833,769.833 919.5,770.5C 912.509,762.672 905.675,754.672 899,746.5C 898.333,745.833 898.333,745.167 899,744.5C 900.652,743.601 902.152,742.601 903.5,741.5 Z"/></g>
<g><path style="opacity:1" fill="#f64e40" d="M 904.5,746.5 C 904.735,745.903 905.235,745.57 906,745.5C 912.544,747.19 919.044,749.023 925.5,751C 922.163,753.671 918.496,755.837 914.5,757.5C 911.383,753.571 908.05,749.904 904.5,746.5 Z"/></g>
</svg>
